/* XPM */
static char *bitcoin16[] = {
/* columns rows colors chars-per-pixel */
"16 16 71 1 ",
"  c #103C35",
". c #13463E",
"X c #154B43",
"o c #1F6C60",
"O c #1F6C61",
"+ c #077865",
"@ c #087865",
"# c #097C69",
"$ c #097D69",
"% c #207063",
"& c #207366",
"* c #0C826E",
"= c #0D8470",
"- c #0E8773",
"; c #0F8874",
": c #108A76",
"> c #13907B",
", c #258273",
"< c #268575",
"1 c #278677",
"2 c #288879",
"3 c #298D7D",
"4 c #298E7F",
"5 c #169681",
"6 c #2C9584",
"7 c #20A891",
"8 c #20AA93",
"9 c #21AC95",
"0 c #30A290",
"q c #31A895",
"w c #23B098",
"e c #27B59E",
"r c #2ABBA4",
"t c #35B6A1",
"y c #36B6A2",
"u c #37B9A3",
"i c #2EC4AC",
"p c #39C1AB",
"a c #3BC6AF",
"s c #31CAB1",
"d c #31CBB1",
"f c #32CCB3",
"g c #3DCFB7",
"h c #38D7BE",
"j c #40DAC1",
"k c #42DDC4",
"l c #43E3C9",
"z c #41E9CE",
"x c #45E9CE",
"c c #46EAD0",
"v c #46F3D7",
"b c #48F1D6",
"n c #47F6DA",
"m c #49F4D8",
"M c #49F4D9",
"N c #4AF7DA",
"B c #4AF8DC",
"V c #4AF9DD",
"C c #4AFBDE",
"Z c #4BFBDF",
"A c #4BFCDF",
"S c #4BFCE0",
"D c #4BFDE0",
"F c #4BFEE1",
"G c #4BFFE2",
"H c #4CFEE1",
"J c #4CFFE1",
"K c #4CFFE2",
"L c #4DFFE2",
"P c #4CFFE3",
"I c None",
/* pixels */
"IIIIIJLJJKJIIIII",
"IIIIDklKKKKKIIII",
"IIPZ&316KKKKKPII",
"IIKKKcBKKxutlKII",
"IGKKN.,KKpO4<cKI",
"IKKKVX2KKb %KKKI",
"IKKKKmAKKKqgKKKI",
"PKKKSKKKKKKKKKKP",
"IKKK9wjtaVKKKKKI",
"IKKKe#gy0oMKKKKI",
"IJKv;:Hzs85nKKKI",
"IIC>+=*+-7dFKKII",
"IIf+++++rKKKKGII",
"III+++++iKKKGIII",
"III+++++hLKIIIII",
"IIII+@+$IIIIIIII"
};
