/* XPM */
static char *bitcoin64[] = {
/* columns rows colors chars-per-pixel */
"64 64 216 2 ",
"   c #103C35",
".  c #103D36",
"X  c #113E37",
"o  c #113F38",
"O  c #11423A",
"+  c #13453D",
"@  c #13473E",
"#  c #13473F",
"$  c #144940",
"%  c #144A41",
"&  c #164D43",
"*  c #154C44",
"=  c #154E45",
"-  c #164F46",
";  c #165147",
":  c #18564C",
">  c #18574D",
",  c #19584E",
"<  c #195B50",
"1  c #1A5C51",
"2  c #1A5D52",
"3  c #1A5E54",
"4  c #1B5F54",
"5  c #1C6257",
"6  c #1C6357",
"7  c #1C6459",
"8  c #1D655A",
"9  c #1E6A5E",
"0  c #1F6C60",
"q  c #1F6E61",
"w  c #077964",
"e  c #067865",
"r  c #077865",
"t  c #067866",
"y  c #077866",
"u  c #077966",
"i  c #087964",
"p  c #087966",
"a  c #087A67",
"s  c #087B67",
"d  c #097C69",
"f  c #0A7D69",
"g  c #0A7D6A",
"h  c #0A7E6B",
"j  c #0B7E6B",
"k  c #0B7F6B",
"l  c #1F7062",
"z  c #217264",
"x  c #217265",
"c  c #207366",
"v  c #217467",
"b  c #217567",
"n  c #247B6E",
"m  c #247C6E",
"M  c #247D6E",
"N  c #0C826E",
"B  c #0C8370",
"V  c #0D8570",
"C  c #0D8571",
"Z  c #0E8672",
"A  c #0F8874",
"S  c #108975",
"D  c #118C77",
"F  c #128D79",
"G  c #138F7A",
"H  c #138F7B",
"J  c #15927D",
"K  c #258071",
"L  c #258172",
"P  c #268575",
"I  c #278576",
"U  c #278778",
"Y  c #288A7A",
"T  c #298B7B",
"R  c #298D7D",
"E  c #298F7F",
"W  c #2A907F",
"Q  c #169681",
"!  c #179883",
"~  c #189A85",
"^  c #1B9F8A",
"/  c #2A9180",
"(  c #2A9281",
")  c #2B9382",
"_  c #2C9584",
"`  c #2C9685",
"'  c #2C9987",
"]  c #2C9988",
"[  c #2D9B89",
"{  c #2D9C8A",
"}  c #1DA28C",
"|  c #1DA38E",
" . c #1EA48E",
".. c #1FA892",
"X. c #2FA08E",
"o. c #20A891",
"O. c #21AB95",
"+. c #23AF97",
"@. c #23AD98",
"#. c #30A693",
"$. c #31A995",
"%. c #31A996",
"&. c #32A996",
"*. c #33AC98",
"=. c #33AD99",
"-. c #33AE9A",
";. c #34AF9C",
":. c #25B29A",
">. c #25B39C",
",. c #27B79F",
"<. c #33B09C",
"1. c #34B19D",
"2. c #34B39E",
"3. c #28B8A0",
"4. c #28B9A1",
"5. c #29BCA4",
"6. c #2ABDA5",
"7. c #2BBFA7",
"8. c #35B5A0",
"9. c #35B6A1",
"0. c #36B6A2",
"q. c #36B7A3",
"w. c #37BAA5",
"e. c #38BEA9",
"r. c #2CC0A8",
"t. c #2CC2A9",
"y. c #2EC4AC",
"u. c #38C0A9",
"i. c #39C1AB",
"p. c #39C2AC",
"a. c #39C3AC",
"s. c #3AC3AD",
"d. c #3AC5AF",
"f. c #3BC6B0",
"g. c #32CCB2",
"h. c #33CDB4",
"j. c #33CEB5",
"k. c #33CFB5",
"l. c #33CFB6",
"z. c #34CEB4",
"x. c #3BC9B2",
"c. c #3BCAB3",
"v. c #3CC8B1",
"b. c #3CCCB5",
"n. c #3DCDB6",
"m. c #3DCFB7",
"M. c #33D0B6",
"N. c #34D0B7",
"B. c #35D3B9",
"V. c #36D5BB",
"C. c #37D6BC",
"Z. c #3FD3BB",
"A. c #38D7BE",
"S. c #3FD6BD",
"D. c #3FD7BF",
"F. c #39DAC0",
"G. c #3ADCC2",
"H. c #3BDDC2",
"J. c #3CE0C5",
"K. c #3DE0C6",
"L. c #3DE1C6",
"P. c #3EE2C7",
"I. c #3DE3C8",
"U. c #3DE3C9",
"Y. c #3EE5CA",
"T. c #40D8C0",
"R. c #41DBC2",
"E. c #41DCC3",
"W. c #42DDC3",
"Q. c #42DDC4",
"!. c #42DEC5",
"~. c #42DFC6",
"^. c #43E0C7",
"/. c #42E1C7",
"(. c #43E3C9",
"). c #45E7CD",
"_. c #41EACE",
"`. c #42EBCF",
"'. c #45E9CE",
"]. c #42EBD0",
"[. c #46EAD0",
"{. c #46EBD0",
"}. c #42ECD0",
"|. c #43ECD1",
" X c #47EDD2",
".X c #46EDD3",
"XX c #44EFD3",
"oX c #47EFD3",
"OX c #45F0D4",
"+X c #47F0D5",
"@X c #46F3D7",
"#X c #47F4D7",
"$X c #48F1D6",
"%X c #47F4D8",
"&X c #47F5D9",
"*X c #47F6DA",
"=X c #49F4D8",
"-X c #4AF7DA",
";X c #48F9DC",
":X c #49FADD",
">X c #4AFADD",
",X c #49FADE",
"<X c #4AFBDE",
"1X c #4AFBDF",
"2X c #4BFBDF",
"3X c #4AFCDF",
"4X c #4BFDE0",
"5X c #4BFFE2",
"6X c #4CFEE1",
"7X c #4CFFE1",
"8X c #4DFFE1",
"9X c #4CFFE2",
"0X c #4DFFE2",
"qX c #4CFFE3",
"wX c #4DFFE3",
"eX c None",
/* pixels */
"eXeXeXeXeXeXeXeXeXeXeXeXeXeXeXeXeXeXeXeXeXeXeXeXeXeXeX7X9X9X9X9X9X9X9X9XwXeXeXeXeXeXeXeXeXeXeXeXeXeXeXeXeXeXeXeXeXeXeXeXeXeXeXeX",
"eXeXeXeXeXeXeXeXeXeXeXeXeXeXeXeXeXeXeXeXeXeXeX8X9X9X9X9X9X9X9X9X9X9X9X9X9X9X9X9XqXeXeXeXeXeXeXeXeXeXeXeXeXeXeXeXeXeXeXeXeXeXeXeX",
"eXeXeXeXeXeXeXeXeXeXeXeXeXeXeXeXeXeXeXeX9X0X9X9X9X9X9X9X9X9X9X9X9X9X9X9X9X9X9X9X9X9X0X5XeXeXeXeXeXeXeXeXeXeXeXeXeXeXeXeXeXeXeXeX",
"eXeXeXeXeXeXeXeXeXeXeXeXeXeXeXeXeXeX5X9X9X9X9X9X9X9X9X9X9X9X9X9X9X9X9X9X9X9X9X9X9X9X9X9X9X9XeXeXeXeXeXeXeXeXeXeXeXeXeXeXeXeXeXeX",
"eXeXeXeXeXeXeXeXeXeXeXeXeXeXeXeXqX9X9X9X9X9X9X9X9X9X9X9X9X9X9X9X9X9X9X9X9X9X9X9X9X9X9X9X9X9X9XqXeXeXeXeXeXeXeXeXeXeXeXeXeXeXeXeX",
"eXeXeXeXeXeXeXeXeXeXeXeXeXeXeX7X9X9X9X9X9X9X9X9X9X9X9X9X9X9X9X9X9X9X9X9X9X9X9X9X9X9X9X9X9X9X9X9X9XeXeXeXeXeXeXeXeXeXeXeXeXeXeXeX",
"eXeXeXeXeXeXeXeXeXeXeXeXeX9X9X9X9X9X9X9X9X9X9X9X9X9X9X9X9X9X9X9X9X9X9X9X9X9X9X9X9X9X9X9X9X9X9X9X9X9X7XeXeXeXeXeXeXeXeXeXeXeXeXeX",
"eXeXeXeXeXeXeXeXeXeXeXeX5X9X9X9X9X9XoXq._ z 6 2 3 v R 0.[.9X9X9X9X9X9X9X9X9X9X9X9X9X9X9X9X9X9X9X9X9X9X9XeXeXeXeXeXeXeXeXeXeXeXeX",
"eXeXeXeXeXeXeXeXeXeXeX9X9X9X9X9Xe.z o                   . 0 x.9X9X9X9X9X9X9X9X9X9X9X9X9X9X9X9X9X9X9X9X9X5XeXeXeXeXeXeXeXeXeXeXeX",
"eXeXeXeXeXeXeXeXeXeXqX9X9X9X9XZ.                            X Q.9X9X9X9X9X9X9X9X9X9X9X9X9X9X9X9X9X9X9X9X9X9XeXeXeXeXeXeXeXeXeXeX",
"eXeXeXeXeXeXeXeXeX9X9X9X9X9X9X~.X     3 ` w.S.W.E.v.X.z O   . T.9X9X9X9X9X9X9X9X9X9X9X9X9X9X9X9X9X9X9X9X9X9X5XeXeXeXeXeXeXeXeXeX",
"eXeXeXeXeXeXeXeX0X9X9X9X9X9X9X9XZ.*.!.9X9X9X9X9X9X9X9X9X$X2.c.9X9X9X9X9X9X9X9X9X9X9X9X9X9X9X9X9X9X9X9X9X9X9X9XqXeXeXeXeXeXeXeXeX",
"eXeXeXeXeXeXeXeX9X9X9X9X9X9X9X9X9X9X9X9X9X9X9X9X9X9X9X9X9X9X9X9X9X9X9X9X9X9X9X9X9X9X9X9X9X9X9X9X9X9X9X9X9X9X9X9XeXeXeXeXeXeXeXeX",
"eXeXeXeXeXeXeX9X9X9X9X9X9X9X9X9X9X9X9X9X9X9X9X9X9X9X9X9X9X9X9X9X9X9X9X9X9X9X9X9X9X9X9X9X9X9X9X9X9X9X9X9X9X9X9X9X9XeXeXeXeXeXeXeX",
"eXeXeXeXeXeX9X9X9X9X9X9X9X9X9X9X9X9X9X9X9X9X9X9X9X9X9X9X9X9X9X9X9X9X9X9X9X9X9X=Xa.{ I v x M E 1.R.9X9X9X9X9X9X9X9X9XeXeXeXeXeXeX",
"eXeXeXeXeXeX9X9X9X9X9X9X9X9X9X9X9X9X9X9X9Xn.c 3 T .X9X9X9X9X9X9X9X9X9X9X9XQ.9 o                   ; ' [.9X9X9X9X9X9XeXeXeXeXeXeX",
"eXeXeXeXeX5X9X9X9X9X9X9X9X9X9X9X9X9X9X9Xs.X       > $X9X9X9X9X9X9X9X9X9X9XU                           O 1.9X9X9X9X9X9XeXeXeXeXeX",
"eXeXeXeXeX9X9X9X9X9X9X9X9X9X9X9X9X9X9X>X=           W 9X9X9X9X9X9X9X9X9X9Xu.X   , l - + 7 %.#.L $       = 9X9X9X9X9X9XeXeXeXeXeX",
"eXeXeXeXqX9X9X9X9X9X9X9X9X9X9X9X9X9X9Xv.            & 6X9X9X9X9X9X9X9X9X9X9X{.{.9.        * '.9X2Xx.z X ( 9X9X9X9X9X9X5XeXeXeXeX",
"eXeXeXeX9X9X9X9X9X9X9X9X9X9X9X9X9X9X9X*.              $X9X9X9X9X9X9X9X9X9X9X9X-X$           P 9X9X9X9X9X9X9X9X9X9X9X9X9XeXeXeXeX",
"eXeXeX9X9X9X9X9X9X9X9X9X9X9X9X9X9X9X9X<.              -X9X9X9X9X9X9X9X9X9X9X9Xf.            # 4X9X9X9X9X9X9X9X9X9X9X9X9X9XeXeXeX",
"eXeXeX9X9X9X9X9X9X9X9X9X9X9X9X9X9X9X9XD.            < 9X9X9X9X9X9X9X9X9X9X9X9X=.              oX9X9X9X9X9X9X9X9X9X9X9X9X7XeXeXeX",
"eXeXeX9X9X9X9X9X9X9X9X9X9X9X9X9X9X9X9X9X8           *.9X9X9X9X9X9X9X9X9X9X9X9X8.            . -X9X9X9X9X9X9X9X9X9X9X9X9X9XeXeXeX",
"eXeXeX9X9X9X9X9X9X9X9X9X9X9X9X9X9X9X9X9X(.;       M 4X9X9X9X9X9X9X9X9X9X9X9X9X^.            5 9X9X9X9X9X9X9X9X9X9X9X9X9X9XeXeXeX",
"eXeX5X9X9X9X9X9X9X9X9X9X9X9X9X9X9X9X9X9X9X$X&.) p.6X9X9X9X9X9X9X9X9X9X9X9X9X9X9Xv           i.9X9X9X9X9X9X9X9X9X9X9X9X9X9X9XeXeX",
"eXeX9X9X9X9X9X9X9X9X9X9X9X9X9X9X9X9X9X9X9X9X9X9X9X9X9X9X9X9X9X9X9X9X9X9X9X9X9X9X X4       / 6X9X9X9X9X9X9X9X9X9X9X9X9X9X9XqXeXeX",
"eXeX9X9X9X9X9X9X9X9X9X9X9X9X9X9X9X9X9X9X9X9X9X9X9X9X9X9X9X9X9X9X9X9X9X9X9X9X9X9X9X>Xu.$.S.9X9X9X9X9X9X9X9X9X9X9X9X9X9X9X9X9XeXeX",
"eXeX9X9X9X9X9X9X9X9X9X9X9X9X9X9X9X9X9X9X9X9X9X9X9X9X9X9X9X9X9X9X9X9X9X9X9X9X9X9X9X9X9X9X9X9X9X9X9X9X9X9X9X9X9X9X9X9X9X9X9X9XeXeX",
"eXeX9X9X9X9X9X9X9X9X9X9X9X9X9X9X9X9X9X9X9X9X9X9X9X9X9X9X9X9X9X9X9X9X9X9X9X9X9X9X9X9X9X9X9X9X9X9X9X9X9X9X9X9X9X9X9X9X9X9X9X9XeXeX",
"eXeX9X9X9X9X9X9X9X9X9X9X9X9X9X9X9X9X9X9X9X9X9X9X9X9X9X9X9X9X9X9X9X9X9X9X9X9X9X9X9X9X9X9X9X9X9X9X9X9X9X9X9X9X9X9X9X9X9X9X9X9XeXeX",
"eXeX9X9X9X9X9X9X9X9X9X9X9X9X9X9X9X9X9X9X9X9X9X9X9X9X9X9X9X9X9X9X9X9X9X9X9X9X9X9X9X9X9X9X9X9X9X9X9X9X9X9X9X9X9X9X9X9X9X9X9X9XeXeX",
"eXeX9X9X9X9X9X9X9X9X9X9X9X9X9X9X9X9X].K.<X9X9X9X9X9X9X9X9X9X9X9X9X9X9X9X9X9X9X9X9X9X9X9X9X9X9X9X9X9X9X9X9X9X9X9X9X9X9X9X9X9XeXeX",
"eXeX9X9X9X9X9X9X9X9X9X9X9X9X9X9X9XM.p r C C.9X9X9X9X9X9X9X9X9X9X9X9X9X9X9X9X9X9X9X9X9X9X9X9X9X9X9X9X9X9X9X9X9X9X9X9X9X9X9X9XeXeX",
"eXeX9X9X9X9X9X9X9X9X9X9X9X9X9X9X9X .r r r a G.9X9X9X9X9X9X9X9X9X9X9X9X9X9X9X9X9X9X9X9X9X9X9X9X9X9X9X9X9X9X9X9X9X9X9X9X9X9X9XeXeX",
"eXeX9X9X9X9X9X9X9X9X9X9X9X9X9X9X9X>.r r r r A 3X9X4Xn.-.( M M K ' q.^.9X9X9X9X9X9X9X9X9X9X9X9X9X9X9X9X9X9X9X9X9X9X9X9X9X9X9XeXeX",
"eXeX8X9X9X9X9X9X9X9X9X9X9X9X9X9X9Xl.r r r r r k.9XR                   : ] ).9X9X9X9X9X9X9X9X9X9X9X9X9X9X9X9X9X9X9X9X9X9X9X9XeXeX",
"eXeXqX9X9X9X9X9X9X9X9X9X9X9X9X9X9X`.r r r r r ..9Xb                       o Y +X9X9X9X9X9X9X9X9X9X9X9X9X9X9X9X9X9X9X9X9X9X5XeXeX",
"eXeXeX9X9X9X9X9X9X9X9X9X9X9X9X9X9X,Xr r r r r Z 9X/.m n ' ;.1.<.[ n %         = W.9X9X9X9X9X9X9X9X9X9X9X9X9X9X9X9X9X9X9X9XeXeXeX",
"eXeXeX9X9X9X9X9X9X9X9X9X9X9X9X9X9X%Xr r r r r r ;X9X9X9X9X9X9X9X9X9X4Xd.q       E 9X9X9X9X9X9X9X9X9X9X9X9X9X9X9X9X9X9X9X9XeXeXeX",
"eXeXeX5X9X9X9X9X9X9X9X9X9X9X9X9X9XF.r r r r r r @X9X9X9X9X9X9X9X9X9X9X9X9Xm.1 @ b.9X9X9X9X9X9X9X9X9X9X9X9X9X9X9X9X9X9X9X0XeXeXeX",
"eXeXeXeX9X9X9X9X9X9X9X9X9X9X9X9X9Xo.r r r r r p :X9X9X9X9X9X9X9X9X9X9X9X9X9X9X9X#XA.N.&X9X9X9X9X9X9X9X9X9X9X9X9X9X9X9X9XeXeXeXeX",
"eXeXeXeX9X9X9X9X9X9X9X9X9X9X9X9XB.u r r r r r H 9X9X9X9X9X9X9X9X9X9X9X9X_.g.O.F r r r V XX9X9X9X9X9X9X9X9X9X9X9X9X9X9X9XeXeXeXeX",
"eXeXeXeX9X9X9X9X9X9X9X9X9X9X9XJ.j r r r r r r t.9X9X9X9X9X9X9X3XL.t.} B r r r r r r r r 6.9X9X9X9X9X9X9X9X9X9X9X9X9X9X7XeXeXeXeX",
"eXeXeXeXeX9X9X9X9X9X9X9X9X9XH.j r r r r r r J 1X9X9X9X*XA.3.! f r r r r r r r r r r r r ,.9X9X9X9X9X9X9X9X9X9X9X9X9X9XeXeXeXeXeX",
"eXeXeXeXeX9X9X9X9X9X9X9X9XF.g r r r r r r r P.|.j.+.G p r r r r r r r r r r r r r r r N }.9X9X9X9X9X9X9X9X9X9X9X9X9X9XeXeXeXeXeX",
"eXeXeXeXeXeX9X9X9X9X9X9XY.f r r r r r r r r r r r r r r r r r r r r r r r r r r f ~ 5.OX9X9X9X9X9X9X9X9X9X9X9X9X9X7XeXeXeXeXeXeX",
"eXeXeXeXeXeXeX9X9X9X9X:XS r r r r r r r r r r r r r r r r r r r r r r r k ^ 7.J.3X9X9X9X9X9X9X9X9X9X9X9X9X9X9X9X9XeXeXeXeXeXeXeX",
"eXeXeXeXeXeXeX9X9X9X9X6.r r r r r r r r r r r r r r r r r r r r d | y.Y.4X9X9X9X9X9X9X9X9X9X9X9X9X9X9X9X9X9X9X9XqXeXeXeXeXeXeXeX",
"eXeXeXeXeXeXeXeX9X9X4XC r r r r r r r r r r r r r r r r r r r r r :.9X9X9X9X9X9X9X9X9X9X9X9X9X9X9X9X9X9X9X9X9X9XeXeXeXeXeXeXeXeX",
"eXeXeXeXeXeXeXeXeX9XP.r r r r r r r r r r r r r r r r r r r r r r r V.9X9X9X9X9X9X9X9X9X9X9X9X9X9X9X9X9X9X9X9XeXeXeXeXeXeXeXeXeX",
"eXeXeXeXeXeXeXeXeXeXh.r r r r r r r r r r r r r r r r r r r r r r r r.9X9X9X9X9X9X9X9X9X9X9X9X9X9X9X9X9X9X9XeXeXeXeXeXeXeXeXeXeX",
"eXeXeXeXeXeXeXeXeXeX@.r r r r r r r r r r r r r r r r r r r r r r r K.9X9X9X9X9X9X9X9X9X9X9X9X9X9X9X9X9X9XeXeXeXeXeXeXeXeXeXeXeX",
"eXeXeXeXeXeXeXeXeXeXeXr r r r r r r r r r r r r r r r r r r r r r 4.9X9X9X9X9X9X9X9X9X9X9X9X9X9X9X9X9X9XeXeXeXeXeXeXeXeXeXeXeXeX",
"eXeXeXeXeXeXeXeXeXeXeXr r r r r r r r r r r r r r r r r r r r r h z.9X9X9X9X9X9X9X9X9X9X9X9X9X9X9X9X9XeXeXeXeXeXeXeXeXeXeXeXeXeX",
"eXeXeXeXeXeXeXeXeXeXeXr r r r r r r r r r r r r r r r r r r r r r s OX9X9X9X9X9X9X9X9X9X9X9X9X9X9X5XeXeXeXeXeXeXeXeXeXeXeXeXeXeX",
"eXeXeXeXeXeXeXeXeXeXeXr r r r r r r r r r r r r r r r r r r r r r r U.9X9X9X9X9X9X9X9X9X9X9X9X0X5XeXeXeXeXeXeXeXeXeXeXeXeXeXeXeX",
"eXeXeXeXeXeXeXeXeXeXeXeXr r r r r r r r r r r r r r r r r r r r r V 1X9X9X9X9X9X9X9X9X9X9X9X9XeXeXeXeXeXeXeXeXeXeXeXeXeXeXeXeXeX",
"eXeXeXeXeXeXeXeXeXeXeXeXr r r r r r r r r r r r r r r r r r r r D I.9X9X9X9X9X9X9X9X9X9X5XeXeXeXeXeXeXeXeXeXeXeXeXeXeXeXeXeXeXeX",
"eXeXeXeXeXeXeXeXeXeXeXeXeXr r r r r r r r r r r r r r r r r r r Q 1X9X9X9X9X9X9X9X9X5XeXeXeXeXeXeXeXeXeXeXeXeXeXeXeXeXeXeXeXeXeX",
"eXeXeXeXeXeXeXeXeXeXeXeXeXt r r r r r r r r r r r r r r r r r r r K.9X9X9X9X9XeXeXeXeXeXeXeXeXeXeXeXeXeXeXeXeXeXeXeXeXeXeXeXeXeX",
"eXeXeXeXeXeXeXeXeXeXeXeXeXeXr r r r r r r r r r r r r r r r r r p eXeXeXeXeXeXeXeXeXeXeXeXeXeXeXeXeXeXeXeXeXeXeXeXeXeXeXeXeXeXeX",
"eXeXeXeXeXeXeXeXeXeXeXeXeXeXeXw r r r r r r r r r r r r r r r r eXeXeXeXeXeXeXeXeXeXeXeXeXeXeXeXeXeXeXeXeXeXeXeXeXeXeXeXeXeXeXeX",
"eXeXeXeXeXeXeXeXeXeXeXeXeXeXeXeXeXi r r r r r r r r r r r r p eXeXeXeXeXeXeXeXeXeXeXeXeXeXeXeXeXeXeXeXeXeXeXeXeXeXeXeXeXeXeXeXeX",
"eXeXeXeXeXeXeXeXeXeXeXeXeXeXeXeXeXeXeXy i r r r e e eXeXeXeXeXeXeXeXeXeXeXeXeXeXeXeXeXeXeXeXeXeXeXeXeXeXeXeXeXeXeXeXeXeXeXeXeXeX"
};
