/* XPM */
static char *bitcoin128[] = {
/* columns rows colors chars-per-pixel */
"128 128 82 1 ",
"  c #103C35",
". c #113F38",
"X c #12433B",
"o c #154A41",
"O c #165147",
"+ c #175249",
"@ c #18554B",
"# c #19594F",
"$ c #1A5D52",
"% c #1B6156",
"& c #1D655A",
"* c #1E6A5D",
"= c #1F6D61",
"- c #077765",
"; c #077865",
": c #087966",
"> c #0A7D69",
", c #206F62",
"< c #207265",
"1 c #227668",
"2 c #237B6D",
"3 c #247F71",
"4 c #0C826E",
"5 c #0E8671",
"6 c #0F8874",
"7 c #108A76",
"8 c #138E7A",
"9 c #15927D",
"0 c #258374",
"q c #278778",
"w c #298C7C",
"e c #2A907F",
"r c #169781",
"t c #179983",
"y c #1A9C86",
"u c #1A9E88",
"i c #2C9483",
"p c #2C9987",
"a c #2E9C8B",
"s c #1DA38C",
"d c #1FA790",
"f c #1FA892",
"g c #2FA18F",
"h c #30A28F",
"j c #20A791",
"k c #21AC95",
"l c #30A492",
"z c #32A996",
"x c #33AC99",
"c c #26B49D",
"v c #34B19D",
"b c #29BCA3",
"n c #2BBFA8",
"m c #36B7A2",
"M c #37BAA4",
"N c #38BCA6",
"B c #37BDA8",
"V c #38BEA9",
"C c #2EC4AB",
"Z c #3AC4AD",
"A c #3BC7B0",
"S c #32CCB3",
"D c #3CCCB5",
"F c #34D1B7",
"G c #36D4BA",
"H c #3ED4BB",
"J c #39D9BF",
"K c #3BDDC3",
"L c #3DE1C6",
"P c #3FE6CA",
"I c #41DCC3",
"U c #43E0C7",
"Y c #43E6CB",
"T c #41E9CE",
"R c #45EDD2",
"E c #46F2D6",
"W c #48F3D7",
"Q c #47F6D9",
"! c #49F6DA",
"~ c #4AFADE",
"^ c #4CFFE2",
"/ c None",
/* pixels */
"/////////////////////////////////////////////////////////^^^^^^^^^^^^^^/////////////////////////////////////////////////////////",
"///////////////////////////////////////////////////^^^^^^^^^^^^^^^^^^^^^^^^^^///////////////////////////////////////////////////",
"///////////////////////////////////////////////^^^^^^^^^^^^^^^^^^^^^^^^^^^^^^^^^^///////////////////////////////////////////////",
"////////////////////////////////////////////^^^^^^^^^^^^^^^^^^^^^^^^^^^^^^^^^^^^^^^^////////////////////////////////////////////",
"/////////////////////////////////////////^^^^^^^^^^^^^^^^^^^^^^^^^^^^^^^^^^^^^^^^^^^^^^/////////////////////////////////////////",
"///////////////////////////////////////^^^^^^^^^^^^^^^^^^^^^^^^^^^^^^^^^^^^^^^^^^^^^^^^^^///////////////////////////////////////",
"/////////////////////////////////////^^^^^^^^^^^^^^^^^^^^^^^^^^^^^^^^^^^^^^^^^^^^^^^^^^^^^^/////////////////////////////////////",
"///////////////////////////////////^^^^^^^^^^^^^^^^^^^^^^^^^^^^^^^^^^^^^^^^^^^^^^^^^^^^^^^^^^///////////////////////////////////",
"/////////////////////////////////^^^^^^^^^^^^^^^^^^^^^^^^^^^^^^^^^^^^^^^^^^^^^^^^^^^^^^^^^^^^^^/////////////////////////////////",
"////////////////////////////////^^^^^^^^^^^^^^^^^^^^^^^^^^^^^^^^^^^^^^^^^^^^^^^^^^^^^^^^^^^^^^^^////////////////////////////////",
"//////////////////////////////^^^^^^^^^^^^^^^^^^^^^^^^^^^^^^^^^^^^^^^^^^^^^^^^^^^^^^^^^^^^^^^^^^^^//////////////////////////////",
"/////////////////////////////^^^^^^^^^^^^^^^^^^^^^^^^^^^^^^^^^^^^^^^^^^^^^^^^^^^^^^^^^^^^^^^^^^^^^^/////////////////////////////",
"///////////////////////////^^^^^^^^^^^^^^^^^^^^^^^^^^^^^^^^^^^^^^^^^^^^^^^^^^^^^^^^^^^^^^^^^^^^^^^^^^///////////////////////////",
"//////////////////////////^^^^^^^^^^^^^^^^^^^^^^^^^^^^^^^^^^^^^^^^^^^^^^^^^^^^^^^^^^^^^^^^^^^^^^^^^^^^//////////////////////////",
"/////////////////////////^^^^^^^^^^^^^^^RDvpq2,23ihmAW^^^^^^^^^^^^^^^^^^^^^^^^^^^^^^^^^^^^^^^^^^^^^^^^^/////////////////////////",
"////////////////////////^^^^^^^^^^^^Wm0@             .#3m!^^^^^^^^^^^^^^^^^^^^^^^^^^^^^^^^^^^^^^^^^^^^^^////////////////////////",
"///////////////////////^^^^^^^^^^!N,.                    .1A^^^^^^^^^^^^^^^^^^^^^^^^^^^^^^^^^^^^^^^^^^^^^///////////////////////",
"//////////////////////^^^^^^^^^^vo                          $D^^^^^^^^^^^^^^^^^^^^^^^^^^^^^^^^^^^^^^^^^^^^//////////////////////",
"/////////////////////^^^^^^^^^^A                             .U^^^^^^^^^^^^^^^^^^^^^^^^^^^^^^^^^^^^^^^^^^^^/////////////////////",
"////////////////////^^^^^^^^^^^w                              i^^^^^^^^^^^^^^^^^^^^^^^^^^^^^^^^^^^^^^^^^^^^^////////////////////",
"///////////////////^^^^^^^^^^^^p         o<elvmVNxaq%.        w^^^^^^^^^^^^^^^^^^^^^^^^^^^^^^^^^^^^^^^^^^^^^^///////////////////",
"//////////////////^^^^^^^^^^^^^YX    .,zI^^^^^^^^^^^^~Hi@    .D^^^^^^^^^^^^^^^^^^^^^^^^^^^^^^^^^^^^^^^^^^^^^^^//////////////////",
"/////////////////^^^^^^^^^^^^^^^I*o$hR^^^^^^^^^^^^^^^^^^^A2+&Z^^^^^^^^^^^^^^^^^^^^^^^^^^^^^^^^^^^^^^^^^^^^^^^^^/////////////////",
"////////////////^^^^^^^^^^^^^^^^^^^^^^^^^^^^^^^^^^^^^^^^^^^^^^^^^^^^^^^^^^^^^^^^^^^^^^^^^^^^^^^^^^^^^^^^^^^^^^^^////////////////",
"////////////////^^^^^^^^^^^^^^^^^^^^^^^^^^^^^^^^^^^^^^^^^^^^^^^^^^^^^^^^^^^^^^^^^^^^^^^^^^^^^^^^^^^^^^^^^^^^^^^^////////////////",
"///////////////^^^^^^^^^^^^^^^^^^^^^^^^^^^^^^^^^^^^^^^^^^^^^^^^^^^^^^^^^^^^^^^^^^^^^^^^^^^^^^^^^^^^^^^^^^^^^^^^^^///////////////",
"//////////////^^^^^^^^^^^^^^^^^^^^^^^^^^^^^^^^^^^^^^^^^^^^^^^^^^^^^^^^^^^^^^^^^^^^^^^^^^^^^^^^^^^^^^^^^^^^^^^^^^^^//////////////",
"/////////////^^^^^^^^^^^^^^^^^^^^^^^^^^^^^^^^^^^^^^^^^^^^^^^^^^^^^^^^^^^^^^^^^^^^^^^^^^^^^^^^^^^^^^^^^^^^^^^^^^^^^^/////////////",
"/////////////^^^^^^^^^^^^^^^^^^^^^^^^^^^^^^^^^^^^^^^^^^^^^^^^^^^^^^^^^^^^^^^^^^^^^^YDmxlllzNH!^^^^^^^^^^^^^^^^^^^^^/////////////",
"////////////^^^^^^^^^^^^^^^^^^^^^^^^^^^^^^^^^^^^^^^^^^^^^^^^^^^^^^^^^^^^^^^^^^WNi&.           +<hH^^^^^^^^^^^^^^^^^^////////////",
"////////////^^^^^^^^^^^^^^^^^^^^^^^^^^^^^^^^Ze2qv!^^^^^^^^^^^^^^^^^^^^^^^^^^m,.                   o0D^^^^^^^^^^^^^^^////////////",
"///////////^^^^^^^^^^^^^^^^^^^^^^^^^^^^^^^I$     oN^^^^^^^^^^^^^^^^^^^^^^^^3                         #v^^^^^^^^^^^^^^///////////",
"//////////^^^^^^^^^^^^^^^^^^^^^^^^^^^^^^^HX.       l^^^^^^^^^^^^^^^^^^^^^^I                            #Z^^^^^^^^^^^^^//////////",
"//////////^^^^^^^^^^^^^^^^^^^^^^^^^^^^^^Wo          A^^^^^^^^^^^^^^^^^^^^^A            .                .Z^^^^^^^^^^^^//////////",
"/////////^^^^^^^^^^^^^^^^^^^^^^^^^^^^^^^0           +~^^^^^^^^^^^^^^^^^^^^!o      . XoXX#231$..  .       &^^^^^^^^^^^^//////////",
"/////////^^^^^^^^^^^^^^^^^^^^^^^^^^^^^^R.            m^^^^^^^^^^^^^^^^^^^^^AX   %hpX      w~^^Iv2X       #^^^^^^^^^^^^^/////////",
"/////////^^^^^^^^^^^^^^^^^^^^^^^^^^^^^^x             1^^^^^^^^^^^^^^^^^^^^^^WNNY^m..       2^^^^^~V,     i^^^^^^^^^^^^^/////////",
"////////^^^^^^^^^^^^^^^^^^^^^^^^^^^^^^^2             X^^^^^^^^^^^^^^^^^^^^^^^^^^IX          z^^^^^^^H2. 0!^^^^^^^^^^^^^^////////",
"////////^^^^^^^^^^^^^^^^^^^^^^^^^^^^^^^$              R^^^^^^^^^^^^^^^^^^^^^^^^^<           XR^^^^^^^^!!^^^^^^^^^^^^^^^^////////",
"///////^^^^^^^^^^^^^^^^^^^^^^^^^^^^^^^^@              I^^^^^^^^^^^^^^^^^^^^^^^^I             h^^^^^^^^^^^^^^^^^^^^^^^^^^^///////",
"///////^^^^^^^^^^^^^^^^^^^^^^^^^^^^^^^^#              Y^^^^^^^^^^^^^^^^^^^^^^^^h             %^^^^^^^^^^^^^^^^^^^^^^^^^^^///////",
"///////^^^^^^^^^^^^^^^^^^^^^^^^^^^^^^^^=              !^^^^^^^^^^^^^^^^^^^^^^^^1             .!^^^^^^^^^^^^^^^^^^^^^^^^^^///////",
"//////^^^^^^^^^^^^^^^^^^^^^^^^^^^^^^^^^i             $^^^^^^^^^^^^^^^^^^^^^^^^^%              Y^^^^^^^^^^^^^^^^^^^^^^^^^^^//////",
"//////^^^^^^^^^^^^^^^^^^^^^^^^^^^^^^^^^D             i^^^^^^^^^^^^^^^^^^^^^^^^^@              H^^^^^^^^^^^^^^^^^^^^^^^^^^^//////",
"//////^^^^^^^^^^^^^^^^^^^^^^^^^^^^^^^^^^#           .Y^^^^^^^^^^^^^^^^^^^^^^^^^%              Y^^^^^^^^^^^^^^^^^^^^^^^^^^^//////",
"/////^^^^^^^^^^^^^^^^^^^^^^^^^^^^^^^^^^^Z           w^^^^^^^^^^^^^^^^^^^^^^^^^^1             .!^^^^^^^^^^^^^^^^^^^^^^^^^^^^/////",
"/////^^^^^^^^^^^^^^^^^^^^^^^^^^^^^^^^^^^^w        .$!^^^^^^^^^^^^^^^^^^^^^^^^^^h             &^^^^^^^^^^^^^^^^^^^^^^^^^^^^^/////",
"/////^^^^^^^^^^^^^^^^^^^^^^^^^^^^^^^^^^^^^w       &W^^^^^^^^^^^^^^^^^^^^^^^^^^^I             h^^^^^^^^^^^^^^^^^^^^^^^^^^^^^/////",
"/////^^^^^^^^^^^^^^^^^^^^^^^^^^^^^^^^^^^^^^D,   $z~^^^^^^^^^^^^^^^^^^^^^^^^^^^^^<.          XR^^^^^^^^^^^^^^^^^^^^^^^^^^^^^/////",
"/////^^^^^^^^^^^^^^^^^^^^^^^^^^^^^^^^^^^^^^^^~YW^^^^^^^^^^^^^^^^^^^^^^^^^^^^^^^^IX          z^^^^^^^^^^^^^^^^^^^^^^^^^^^^^^/////",
"////^^^^^^^^^^^^^^^^^^^^^^^^^^^^^^^^^^^^^^^^^^^^^^^^^^^^^^^^^^^^^^^^^^^^^^^^^^^^^m.        2^^^^^^^^^^^^^^^^^^^^^^^^^^^^^^^^////",
"////^^^^^^^^^^^^^^^^^^^^^^^^^^^^^^^^^^^^^^^^^^^^^^^^^^^^^^^^^^^^^^^^^^^^^^^^^^^^^^NX      w~^^^^^^^^^^^^^^^^^^^^^^^^^^^^^^^^////",
"////^^^^^^^^^^^^^^^^^^^^^^^^^^^^^^^^^^^^^^^^^^^^^^^^^^^^^^^^^^^^^^^^^^^^^^^^^^^^^^^Ra%O$0H^^^^^^^^^^^^^^^^^^^^^^^^^^^^^^^^^^////",
"////^^^^^^^^^^^^^^^^^^^^^^^^^^^^^^^^^^^^^^^^^^^^^^^^^^^^^^^^^^^^^^^^^^^^^^^^^^^^^^^^^^^^^^^^^^^^^^^^^^^^^^^^^^^^^^^^^^^^^^^^////",
"////^^^^^^^^^^^^^^^^^^^^^^^^^^^^^^^^^^^^^^^^^^^^^^^^^^^^^^^^^^^^^^^^^^^^^^^^^^^^^^^^^^^^^^^^^^^^^^^^^^^^^^^^^^^^^^^^^^^^^^^^////",
"////^^^^^^^^^^^^^^^^^^^^^^^^^^^^^^^^^^^^^^^^^^^^^^^^^^^^^^^^^^^^^^^^^^^^^^^^^^^^^^^^^^^^^^^^^^^^^^^^^^^^^^^^^^^^^^^^^^^^^^^^////",
"////^^^^^^^^^^^^^^^^^^^^^^^^^^^^^^^^^^^^^^^^^^^^^^^^^^^^^^^^^^^^^^^^^^^^^^^^^^^^^^^^^^^^^^^^^^^^^^^^^^^^^^^^^^^^^^^^^^^^^^^^////",
"////^^^^^^^^^^^^^^^^^^^^^^^^^^^^^^^^^^^^^^^^^^^^^^^^^^^^^^^^^^^^^^^^^^^^^^^^^^^^^^^^^^^^^^^^^^^^^^^^^^^^^^^^^^^^^^^^^^^^^^^^////",
"////^^^^^^^^^^^^^^^^^^^^^^^^^^^^^^^^^^^^^^^^^^^^^^^^^^^^^^^^^^^^^^^^^^^^^^^^^^^^^^^^^^^^^^^^^^^^^^^^^^^^^^^^^^^^^^^^^^^^^^^^////",
"////^^^^^^^^^^^^^^^^^^^^^^^^^^^^^^^^^^^^^^^^^^^^^^^^^^^^^^^^^^^^^^^^^^^^^^^^^^^^^^^^^^^^^^^^^^^^^^^^^^^^^^^^^^^^^^^^^^^^^^^^////",
"////^^^^^^^^^^^^^^^^^^^^^^^^^^^^^^^^^^^^^^^^^^^^^^^^^^^^^^^^^^^^^^^^^^^^^^^^^^^^^^^^^^^^^^^^^^^^^^^^^^^^^^^^^^^^^^^^^^^^^^^^////",
"////^^^^^^^^^^^^^^^^^^^^^^^^^^^^^^^^^^^^^^^^^^^^^^^^^^^^^^^^^^^^^^^^^^^^^^^^^^^^^^^^^^^^^^^^^^^^^^^^^^^^^^^^^^^^^^^^^^^^^^^^////",
"////^^^^^^^^^^^^^^^^^^^^^^^^^^^^^^^^^^^^^^^^^^^^^^^^^^^^^^^^^^^^^^^^^^^^^^^^^^^^^^^^^^^^^^^^^^^^^^^^^^^^^^^^^^^^^^^^^^^^^^^^////",
"////^^^^^^^^^^^^^^^^^^^^^^^^^^^^^^^^RCcSR^^^^^^^^^^^^^^^^^^^^^^^^^^^^^^^^^^^^^^^^^^^^^^^^^^^^^^^^^^^^^^^^^^^^^^^^^^^^^^^^^^^////",
"////^^^^^^^^^^^^^^^^^^^^^^^^^^^^^^^S>;;;;kE^^^^^^^^^^^^^^^^^^^^^^^^^^^^^^^^^^^^^^^^^^^^^^^^^^^^^^^^^^^^^^^^^^^^^^^^^^^^^^^^^////",
"////^^^^^^^^^^^^^^^^^^^^^^^^^^^^^^Q4;;;;;;4P^^^^^^^^^^^^^^^^^^^^^^^^^^^^^^^^^^^^^^^^^^^^^^^^^^^^^^^^^^^^^^^^^^^^^^^^^^^^^^^^////",
"////^^^^^^^^^^^^^^^^^^^^^^^^^^^^^^G;;;;;;;;>P^^^^^^^^^^^^^^^^^^^^^^^^^^^^^^^^^^^^^^^^^^^^^^^^^^^^^^^^^^^^^^^^^^^^^^^^^^^^^^^////",
"////^^^^^^^^^^^^^^^^^^^^^^^^^^^^^^S;;;;;;;;;9!^^^^^^^^^^^^^^^^^^^^^^^^^^^^^^^^^^^^^^^^^^^^^^^^^^^^^^^^^^^^^^^^^^^^^^^^^^^^^^////",
"////^^^^^^^^^^^^^^^^^^^^^^^^^^^^^^L;;;;;;;;;;c^^^^^^^^^~YHVVvMZDI^^^^^^^^^^^^^^^^^^^^^^^^^^^^^^^^^^^^^^^^^^^^^^^^^^^^^^^^^^^////",
"////^^^^^^^^^^^^^^^^^^^^^^^^^^^^^^~>;;;;;;;;->E^^^^Wx0$.          @2zI^^^^^^^^^^^^^^^^^^^^^^^^^^^^^^^^^^^^^^^^^^^^^^^^^^^^^^////",
"////^^^^^^^^^^^^^^^^^^^^^^^^^^^^^^^t;;;;;;;;;;c^^^W$                  @wD^^^^^^^^^^^^^^^^^^^^^^^^^^^^^^^^^^^^^^^^^^^^^^^^^^^////",
"/////^^^^^^^^^^^^^^^^^^^^^^^^^^^^^^C;;;;;;;;;-5^^^x                      $z!^^^^^^^^^^^^^^^^^^^^^^^^^^^^^^^^^^^^^^^^^^^^^^^/////",
"/////^^^^^^^^^^^^^^^^^^^^^^^^^^^^^^K---;;;;;;;;K^^p                        oh!^^^^^^^^^^^^^^^^^^^^^^^^^^^^^^^^^^^^^^^^^^^^^/////",
"/////^^^^^^^^^^^^^^^^^^^^^^^^^^^^^^P--;;;;;;;;;n^^Z      .                   +A^^^^^^^^^^^^^^^^^^^^^^^^^^^^^^^^^^^^^^^^^^^^/////",
"/////^^^^^^^^^^^^^^^^^^^^^^^^^^^^^^Q;;;;;;;;;;;u^^^q     o$<11,$X.             0~^^^^^^^^^^^^^^^^^^^^^^^^^^^^^^^^^^^^^^^^^^/////",
"/////^^^^^^^^^^^^^^^^^^^^^^^^^^^^^^Q;;;;;;;;;;;5^^^^DgxHW^^^^^^^^RDh,.          2^^^^^^^^^^^^^^^^^^^^^^^^^^^^^^^^^^^^^^^^^^/////",
"//////^^^^^^^^^^^^^^^^^^^^^^^^^^^^^E;;;;;;;;;;;;~^^^^^^^^^^^^^^^^^^^^!N,         Y^^^^^^^^^^^^^^^^^^^^^^^^^^^^^^^^^^^^^^^^//////",
"//////^^^^^^^^^^^^^^^^^^^^^^^^^^^^^K;;;;;;;;;;;;T^^^^^^^^^^^^^^^^^^^^^^^I3       I^^^^^^^^^^^^^^^^^^^^^^^^^^^^^^^^^^^^^^^^//////",
"//////^^^^^^^^^^^^^^^^^^^^^^^^^^^^^S;;;;;;;;;;;;Y^^^^^^^^^^^^^^^^^^^^^^^^^I%    @~^^^^^^^^^^^^^^^^^^^^^^^^^^^^^^^^^^^^^^^^//////",
"///////^^^^^^^^^^^^^^^^^^^^^^^^^^^^s;;;;;;;;;;;;T^^^^^^^^^^^^^^^^^^^^^^^^^^^z+ &K^^^^^^^^^^^^^^^^^^^^^^^^^^^^^^^^^^^^^^^^///////",
"///////^^^^^^^^^^^^^^^^^^^^^^^^^^^E>;;;;;;;;;;;;T^^^^^^^^^^^^^^^^^^^^^^^^^^^^^~^^^^^^^^^^^^^^^^^^^^^^^^^^^^^^^^^^^^^^^^^^///////",
"///////^^^^^^^^^^^^^^^^^^^^^^^^^^^b;;;;;;;;;;;;>^^^^^^^^^^^^^^^^^^^^^^^^^^^^^^^^QJbstdF^^^^^^^^^^^^^^^^^^^^^^^^^^^^^^^^^^///////",
"////////^^^^^^^^^^^^^^^^^^^^^^^^^P;;;;;;;;;;;;;9^^^^^^^^^^^^^^^^^^^^^^^^^^^^RFc8:;;;;;-s^^^^^^^^^^^^^^^^^^^^^^^^^^^^^^^^////////",
"////////^^^^^^^^^^^^^^^^^^^^^^^^Q9;;;;;;;;;;;;;b^^^^^^^^^^^^^^^^^^^^^^^^PCd6;;--;;;;;---C^^^^^^^^^^^^^^^^^^^^^^^^^^^^^^^////////",
"/////////^^^^^^^^^^^^^^^^^^^^^^Q9;;;;;;;;;;;;;;T^^^^^^^^^^^^^^^^^^^!Iby>;;;;;;;;;;;;;;;;7^^^^^^^^^^^^^^^^^^^^^^^^^^^^^^/////////",
"/////////^^^^^^^^^^^^^^^^^^^^^E9;;;;;;;;;;;;;;s^^^^^^^^^^^^^^^^EJct:----;;;;;;;;;;;;;;;;;Q^^^^^^^^^^^^^^^^^^^^^^^^^^^^^/////////",
"/////////^^^^^^^^^^^^^^^^^^^^R6;;;;;;;;;;;;;;>E^^^^^^^^^^^^TCj8;:::::---;;;;;;;;;;;;;;;;;P^^^^^^^^^^^^^^^^^^^^^^^^^^^^//////////",
"//////////^^^^^^^^^^^^^^^^^^P4;;;;;;;;;;;;;;;J^^^^^^^^~Kns4-;;-;::::-:--;;;;;;;;;;;;;;;;:~^^^^^^^^^^^^^^^^^^^^^^^^^^^^//////////",
"//////////^^^^^^^^^^^^^^^^^T5;;;;;;;;;;;;;;;b^^^^^WJcr>-;;;;;;;;----;;;;;;;;;;;;;;;;;;;;f^^^^^^^^^^^^^^^^^^^^^^^^^^^^^//////////",
"///////////^^^^^^^^^^^^^^^R6;;;;;;;;;;;;;;;;G~TSk8;;;;;;;;;;;;;;--;;;;;;;;;;;;;;;;;;;;;r~^^^^^^^^^^^^^^^^^^^^^^^^^^^^///////////",
"////////////^^^^^^^^^^^^^Q7;;;;;;;;;;;;;;;;;;;;;;;;;;;;;;;;;;;;;;;;;;;;;;;;;;;;;--;;;8C~^^^^^^^^^^^^^^^^^^^^^^^^^^^^////////////",
"////////////^^^^^^^^^^^^^s;;;;;;;;;;;;;;;;;;;;;;;;;;;;;;;;;;;;;;;;;;;;;;;;;;;;;;;5sSP^^^^^^^^^^^^^^^^^^^^^^^^^^^^^^^////////////",
"/////////////^^^^^^^^^^^n;;;;;;;;;;;;;;;;;;;;;;;;;;;;;;;;;;;;;;;;;;;;;;;;;;;;9cSE^^^^^^^^^^^^^^^^^^^^^^^^^^^^^^^^^^/////////////",
"/////////////^^^^^^^^^^T;;;;;;;;;;;;;;;;;;;;;;;;;;;;;;;;;;;;;;;;;;;;;;;;;8kGW^^^^^^^^^^^^^^^^^^^^^^^^^^^^^^^^^^^^^^/////////////",
"//////////////^^^^^^^^^s;;;;;;;;;;;;;;;;;;;;;;;;;;;;;;;;;;;;;;;;;;;;;9bG!^^^^^^^^^^^^^^^^^^^^^^^^^^^^^^^^^^^^^^^^^//////////////",
"///////////////^^^^^^^K;;;;;;;;;;;;;;;;;;;;;;;;;;;;;;;;;;;;;;;;;;5nK~^^^^^^^^^^^^^^^^^^^^^^^^^^^^^^^^^^^^^^^^^^^^///////////////",
"////////////////^^^^^^d;;;;;;;;;;;;;;;;;;;;;;;;;;;;;;;;;;;;;;;;;--k~^^^^^^^^^^^^^^^^^^^^^^^^^^^^^^^^^^^^^^^^^^^^////////////////",
"////////////////^^^^^~>;;;;;;;;;;;;;;;;;;;;;;;;;;;;;;;;;;;;;;;;;---y^^^^^^^^^^^^^^^^^^^^^^^^^^^^^^^^^^^^^^^^^^^^////////////////",
"/////////////////^^^^F;;;;;;;;;;;;;;;;;;;;;;;;;;;;;;;;;;;;;;;;;;-;:-C^^^^^^^^^^^^^^^^^^^^^^^^^^^^^^^^^^^^^^^^^^/////////////////",
"//////////////////^^^c;;;;;;;;;;;;;;;;;;;;;;;;;;;;;;;;;;;;;;;;;;;;::8^^^^^^^^^^^^^^^^^^^^^^^^^^^^^^^^^^^^^^^^^//////////////////",
"///////////////////^^u;;;;;;;;;;;;;;;;;;;;;;;;;;;;;;;;;;;;;;;;;;;;;;:^^^^^^^^^^^^^^^^^^^^^^^^^^^^^^^^^^^^^^^^///////////////////",
"////////////////////^9;;;;;;;;;;;;;;;;;;;;;;;;;;;;;;;;;;;;;;;;;;;;;;5^^^^^^^^^^^^^^^^^^^^^^^^^^^^^^^^^^^^^^^////////////////////",
"/////////////////////8;;;;;;;;;;;;;;;;;;;;;;;;;;;;;;;;;;;;;;;;;;;;;;j^^^^^^^^^^^^^^^^^^^^^^^^^^^^^^^^^^^^^^/////////////////////",
"/////////////////////5;;;;;;;;;;;;;;;;;;;;;;;;;;;;;;;;;;;;;;;;;;;;;;K^^^^^^^^^^^^^^^^^^^^^^^^^^^^^^^^^^^^^//////////////////////",
"/////////////////////;;;;;;;;;;;;;;;;;;;;;;;;;;;;;;;;;;;;;;;;;;;;;-k^^^^^^^^^^^^^^^^^^^^^^^^^^^^^^^^^^^^^///////////////////////",
"/////////////////////;;;;;;;;;;;;;;;;;;;;;;;;;;;;;;;;;;;;;;;;;;;;;c~^^^^^^^^^^^^^^^^^^^^^^^^^^^^^^^^^^^^////////////////////////",
"/////////////////////-;;;;;;;;;;;;;;;;;;;;;;;;;;;;;;;;;;;;;;;;;;;8T^^^^^^^^^^^^^^^^^^^^^^^^^^^^^^^^^^^^/////////////////////////",
"//////////////////////;;;;;;;;;;;;;;;;;;;;;;;;;;;;;;;;;;;;;;;;;;;;>G^^^^^^^^^^^^^^^^^^^^^^^^^^^^^^^^^^//////////////////////////",
"//////////////////////;;;;;;;;;;;;;;;;;;;;;;;;;;;;;;;;;;;;;;;;;;;->>W^^^^^^^^^^^^^^^^^^^^^^^^^^^^^^^^///////////////////////////",
"//////////////////////;;;;;;;;;;;;;;;;;;;;;;;;;;;;;;;;;;;;;;;;;;;--;S^^^^^^^^^^^^^^^^^^^^^^^^^^^^^^/////////////////////////////",
"//////////////////////;;;;;;;;;;;;;;;;;;;;;;;;;;;;;;;;;;;;;;;;;;;;;;C^^^^^^^^^^^^^^^^^^^^^^^^^^^^^//////////////////////////////",
"///////////////////////;;;;;;;;;;;;;;;;;;;;;;;;;;;;;;;;;;;;;;;;;;;;;S^^^^^^^^^^^^^^^^^^^^^^^^^^^////////////////////////////////",
"///////////////////////;;;;;;;;;;;;;;;;;;;;;;;;;;;;;;;;;;;;;;;;;;;;;R^^^^^^^^^^^^^^^^^^^^^^^^^^/////////////////////////////////",
"///////////////////////;;;;;;;;;;;;;;;;;;;;;;;;;;;;;;;;;;;;;;;;;;;;j^^^^^^^^^^^^^^^^^^^^^^^^^///////////////////////////////////",
"////////////////////////;;;;;;;;;;;;;;;;;;;;;;;;;;;;;;;;;;;;;;;;--9Q^^^^^^^^^^^^^^^^^^^^^^^/////////////////////////////////////",
"////////////////////////-;;;;;;;;;;;;;;;;;;;;;;;;;;;;;;;;;;;;;;;4n~^^^^^^^^^^^^^^^^^^^^^^///////////////////////////////////////",
"/////////////////////////;;;;;;;;;;;;;;;;;;;;;;;;;;;;;;;;;;;;;;;5J^^^^^^^^^^^^^^^^^^^^^/////////////////////////////////////////",
"/////////////////////////;;;;;;;;;;;;;;;;;;;;;;;;;;;;;;;;;;;;;;;;;T^^^^^^^^^^^^^^^^^////////////////////////////////////////////",
"//////////////////////////;;;;;;;;;;;;;;;;;;;;;;;;;;;;;;;;;;;;;;;;n^^^^^^^^^^^^^^///////////////////////////////////////////////",
"///////////////////////////;;;;;;;;;;;;;;;;;;;;;;;;;;;;;;;;;;;;;;;c^^^^^^^^^^///////////////////////////////////////////////////",
"////////////////////////////;;;;;;;;;;;;;;;;;;;;;;;;;;;;;;;;;;;;;;C^^^^/////////////////////////////////////////////////////////",
"/////////////////////////////;;;;;;;;;;;;;;;;;;;;;;;;;;;;;;;;;;;;;//////////////////////////////////////////////////////////////",
"//////////////////////////////;;;;;;;;;;;;;;;;;;;;;;;;;;;;;;;;;;;///////////////////////////////////////////////////////////////",
"///////////////////////////////;;;;;;;;;;;;;;;;;;;;;;;;;;;;;;;;;////////////////////////////////////////////////////////////////",
"/////////////////////////////////;;;;;;;;;;;;;;;;;;;;;;;;;;;;;//////////////////////////////////////////////////////////////////",
"///////////////////////////////////;;;;;;;;;;;;;;;;;;;;;;;;/////////////////////////////////////////////////////////////////////",
"/////////////////////////////////////;;;;;;;;;;;;;;;-://////////////////////////////////////////////////////////////////////////",
"////////////////////////////////////////;;;;;;;;;;//////////////////////////////////////////////////////////////////////////////"
};
