/* XPM */
static char *bitcoin32[] = {
/* columns rows colors chars-per-pixel */
"32 32 130 2 ",
"   c #103C35",
".  c #103D36",
"X  c #113E37",
"o  c #113F38",
"O  c #124139",
"+  c #12443D",
"@  c #144840",
"#  c #154C44",
"$  c #154F46",
"%  c #17544A",
"&  c #18564C",
"*  c #1A5C51",
"=  c #1B5F55",
"-  c #1C6156",
";  c #1C6357",
":  c #1D655A",
">  c #1D675B",
",  c #1E6B5F",
"<  c #1F6C60",
"1  c #1F6E61",
"2  c #067865",
"3  c #077865",
"4  c #077966",
"5  c #087864",
"6  c #087966",
"7  c #087A67",
"8  c #097E6B",
"9  c #0A7E6B",
"0  c #0B7F6B",
"q  c #217264",
"w  c #217568",
"e  c #237B6D",
"r  c #247D6E",
"t  c #0C816D",
"y  c #0C826E",
"u  c #0D846F",
"i  c #0D8571",
"p  c #0E8773",
"a  c #0F8874",
"s  c #258071",
"d  c #258274",
"f  c #268575",
"g  c #288C7B",
"h  c #179883",
"j  c #189A85",
"k  c #1A9D87",
"l  c #1A9E88",
"z  c #2D9C8A",
"x  c #2E9E8B",
"c  c #2E9D8C",
"v  c #2F9F8D",
"b  c #1CA18A",
"n  c #1EA48E",
"m  c #1FA690",
"M  c #30A28F",
"N  c #20A992",
"B  c #22AE97",
"V  c #23AF97",
"C  c #30A693",
"Z  c #31A794",
"A  c #31A995",
"S  c #33AE9A",
"D  c #26B49C",
"F  c #26B59D",
"G  c #27B69F",
"H  c #34B19D",
"J  c #2ABBA3",
"K  c #2ABBA4",
"L  c #35B6A1",
"P  c #37B9A3",
"I  c #37BCA7",
"U  c #2EC4AB",
"Y  c #2FC6AD",
"T  c #39C0AA",
"R  c #3AC4AE",
"E  c #3AC5AF",
"W  c #33CDB4",
"Q  c #34CEB4",
"!  c #33D0B6",
"~  c #3FD3BB",
"^  c #3FD4BC",
"/  c #3FD6BE",
"(  c #3CDEC4",
")  c #3CDFC5",
"_  c #3DE1C6",
"`  c #3DE3C8",
"'  c #40D9C0",
"]  c #41DBC2",
"[  c #42DEC5",
"{  c #42DFC6",
"}  c #43E0C7",
"|  c #42E1C7",
" . c #43E3C9",
".. c #44E4CA",
"X. c #44E5CB",
"o. c #40E7CC",
"O. c #44E7CD",
"+. c #45E7CD",
"@. c #41E9CE",
"#. c #45E8CD",
"$. c #45E9CE",
"%. c #43EDD1",
"&. c #47EDD2",
"*. c #44EFD3",
"=. c #45F0D4",
"-. c #47F0D4",
";. c #47F0D5",
":. c #48F2D7",
">. c #47F5D9",
",. c #47F6DA",
"<. c #47F7DA",
"1. c #49F4D8",
"2. c #49F5D8",
"3. c #4AF7DA",
"4. c #48F8DC",
"5. c #4AF9DD",
"6. c #4AFADD",
"7. c #49FADE",
"8. c #4BFCDF",
"9. c #4BFCE0",
"0. c #4BFDE0",
"q. c #4BFEE1",
"w. c #4BFFE2",
"e. c #4CFEE1",
"r. c #4CFFE1",
"t. c #4CFFE2",
"y. c #4DFFE2",
"u. c #4CFFE3",
"i. c #4DFFE3",
"p. c None",
/* pixels */
"p.p.p.p.p.p.p.p.p.p.p.p.u.t.t.t.t.t.t.u.p.p.p.p.p.p.p.p.p.p.p.p.",
"p.p.p.p.p.p.p.p.p.p.t.t.t.t.t.t.t.t.t.t.t.t.p.p.p.p.p.p.p.p.p.p.",
"p.p.p.p.p.p.p.p.t.t.t.t.t.t.t.t.t.t.t.t.t.t.t.t.p.p.p.p.p.p.p.p.",
"p.p.p.p.p.p.r.t.t.$.T H L ~ 8.t.t.t.t.t.t.t.t.t.t.u.p.p.p.p.p.p.",
"p.p.p.p.p.t.t.3., .         @ I t.t.t.t.t.t.t.t.t.t.t.p.p.p.p.p.",
"p.p.p.p.y.t.t.5.s x ^ X...R g I t.t.t.t.t.t.t.t.t.t.t.t.p.p.p.p.",
"p.p.p.p.t.t.t.t.t.t.t.t.t.t.t.t.t.t.t.t.t.t.t.t.t.t.t.t.p.p.p.p.",
"p.p.p.t.t.t.t.t.t.t.1.P | t.t.t.t.t.6.C w * & 1 c | t.t.t.p.p.p.",
"p.p.t.t.t.t.t.t.t.e.>   +  .t.t.t.t./ . & = < : o X E t.t.t.p.p.",
"p.p.t.t.t.t.t.t.t.}       M t.t.t.t.t.2.-   O [ ;.S +.t.t.t.p.p.",
"p.p.t.t.t.t.t.t.t.X.      Z t.t.t.t.t.}       v t.t.t.t.t.t.p.p.",
"p.t.t.t.t.t.t.t.t.t.e   $ &.t.t.t.t.t.#.      A t.t.t.t.t.t.r.p.",
"p.t.t.t.t.t.t.t.t.t.8.^ :.t.t.t.t.t.t.t.f   % -.t.t.t.t.t.t.y.p.",
"p.t.t.t.t.t.t.t.t.t.t.t.t.t.t.t.t.t.t.t.0.{ 3.t.t.t.t.t.t.t.t.p.",
"p.t.t.t.t.t.t.t.t.t.t.t.t.t.t.t.t.t.t.t.t.t.t.t.t.t.t.t.t.t.t.p.",
"p.t.t.t.t.t.t.t.t.>.q.t.t.t.t.t.t.t.t.t.t.t.t.t.t.t.t.t.t.t.t.p.",
"p.t.t.t.t.t.t.t.) 4 h 4.t.t.t.t.t.t.t.t.t.t.t.t.t.t.t.t.t.t.t.p.",
"p.t.t.t.t.t.t.t._ 3 3 G O.r : ; q z  .t.t.t.t.t.t.t.t.t.t.t.t.p.",
"p.y.t.t.t.t.t.t.4.3 3 a ' * q e * X X d 5.t.t.t.t.t.t.t.t.t.r.p.",
"p.p.t.t.t.t.t.t.=.3 3 6 q.t.t.t.t.-.x # ] t.t.t.t.t.t.t.t.t.p.p.",
"p.p.t.t.t.t.t.t.J 3 3 t q.t.t.t.t.t.%.W V D 9.t.t.t.t.t.t.t.p.p.",
"p.p.t.t.t.t.t.Q 7 3 3 F t.0.` U n i 3 3 3 3 ( t.t.t.t.t.t.t.p.p.",
"p.p.p.t.t.t.! 6 3 3 3 B j 9 3 3 3 3 3 3 y N 7.t.t.t.t.t.t.p.p.p.",
"p.p.p.w.t.*.0 3 3 3 3 3 3 3 3 3 u m Y o.q.t.t.t.t.t.t.t.r.p.p.p.",
"p.p.p.p.u.G 3 3 3 3 3 3 3 3 3 3 p ,.t.t.t.t.t.t.t.t.t.t.p.p.p.p.",
"p.p.p.p.p.l 3 3 3 3 3 3 3 3 3 3 3 @.t.t.t.t.t.t.t.t.t.p.p.p.p.p.",
"p.p.p.p.p.8 3 3 3 3 3 3 3 3 3 3 b t.t.t.t.t.t.t.t.u.p.p.p.p.p.p.",
"p.p.p.p.p.p.3 3 3 3 3 3 3 3 3 3 4 <.t.t.t.t.t.t.t.p.p.p.p.p.p.p.",
"p.p.p.p.p.p.3 3 3 3 3 3 3 3 3 3 k t.t.t.t.t.t.p.p.p.p.p.p.p.p.p.",
"p.p.p.p.p.p.5 3 3 3 3 3 3 3 3 3 K t.t.u.i.p.p.p.p.p.p.p.p.p.p.p.",
"p.p.p.p.p.p.p.3 3 3 3 3 3 3 3 3 p.p.p.p.p.p.p.p.p.p.p.p.p.p.p.p.",
"p.p.p.p.p.p.p.p.p.3 3 3 3 2 p.p.p.p.p.p.p.p.p.p.p.p.p.p.p.p.p.p."
};
